# xmcd
#
# Track frame offsets:
#	150
#	41128
#	96322
#	170416
#	193888
#	252375
#
# Disc length: 4312 seconds
#
# Revision: 0
# Processed by: cddbd v1.5.2PL0 Copyright (c) Steve Scherf et al.
# Submitted via: audiograbber 1.83.01
#
DISCID=5410d606
DTITLE=Grateful Dead - 94-07-03 Shoreline Amphitheatre, Mountain View CA
DYEAR=1900
DGENRE=
TTITLE0=Samson and Delilah
TTITLE1=Eyes Of The World
TTITLE2=Fire On The Mountain
TTITLE3=Box Of Rain
TTITLE4=Terrapin Station
TTITLE5=Drums
EXTD=
EXTT0=
EXTT1=
EXTT2=
EXTT3=
EXTT4=
EXTT5=
PLAYORDER=
